<?xml version="1.0" encoding="UTF-8" standalone="no"?>
<svg
   xmlns:dc="http://purl.org/dc/elements/1.1/"
   xmlns:cc="http://creativecommons.org/ns#"
   xmlns:rdf="http://www.w3.org/1999/02/22-rdf-syntax-ns#"
   xmlns:svg="http://www.w3.org/2000/svg"
   xmlns="http://www.w3.org/2000/svg"
   xmlns:sodipodi="http://sodipodi.sourceforge.net/DTD/sodipodi-0.dtd"
   xmlns:inkscape="http://www.inkscape.org/namespaces/inkscape"
   version="1.1"
   id="Layer_1"
   x="0px"
   y="0px"
   width="100px"
   height="95px"
   viewBox="5.0 -9.5 100.0 128.25"
   enable-background="new 0 0 100 95"
   xml:space="preserve"
   inkscape:version="0.91 r13725"
   sodipodi:docname="alarm1.svg"><metadata
     id="metadata91"><rdf:RDF><cc:Work
         rdf:about=""><dc:format>image/svg+xml</dc:format><dc:type
           rdf:resource="http://purl.org/dc/dcmitype/StillImage" /><dc:title></dc:title></cc:Work></rdf:RDF></metadata><defs
     id="defs89" /><sodipodi:namedview
     pagecolor="#ffffff"
     bordercolor="#666666"
     borderopacity="1"
     objecttolerance="10"
     gridtolerance="10"
     guidetolerance="10"
     inkscape:pageopacity="0"
     inkscape:pageshadow="2"
     inkscape:window-width="1366"
     inkscape:window-height="715"
     id="namedview87"
     showgrid="false"
     inkscape:zoom="2.4842105"
     inkscape:cx="42.955508"
     inkscape:cy="47.5"
     inkscape:window-x="-8"
     inkscape:window-y="-8"
     inkscape:window-maximized="1"
     inkscape:current-layer="Layer_1" /><path
     fill="#000000"
     d="M692.673,171.833l2.181-11.289L751,169c0,0-3-17-8.5-19.5c-1.812-0.823-19.299-8.536-41.938-18.508  l3.443-17.825h-22.667l1.976,10.229c-12.734-5.607-26.163-11.52-38.826-17.094l2.344-14.617h-22.667l0.979,6.103  C603.2,88.128,587,81,587,81c0-14.5-2.5-97.5-27.5-97.5S532,81,532,81s-16.108,7.088-37.959,16.705l0.965-6.02h-22.667l2.333,14.545  c-12.647,5.567-26.066,11.475-38.798,17.082l1.96-10.145h-22.667l3.43,17.754c-22.715,10.006-40.281,17.753-42.097,18.579  C371,152,368,169,368,169l56.314-8.481l2.186,11.314l2.317-11.993l53.168-8.007l1.687,10.519l1.771-11.039L534,144l7.5,125.5  L489,302l0.5,7.5l67.508-9.645l2.492,18.979l2.398-18.991L629.5,309.5l0.5-7.5l-52.5-32.5L585,144l48.735,7.339l1.766,11.012  l1.683-10.493l53.178,8.009L692.673,171.833z"
     id="path3" /><path
     fill="#000000"
     d="M599.251,653.251c-0.348,0.267-2.934,1.507-9.333-3.556s0-7.862,0-7.862S599.599,652.984,599.251,653.251z"
     id="path5" /><path
     fill="#000000"
     d="M838.988,623.817l5.712-3.721l-47.294-26.816l-0.951-0.756l0.045-0.024v-36l-5.25,2.5l-7.494,19.875  l-21.001-23.612l-6.292,3.262l5.735,40.413c-43.95,22.156-74.38,34.882-101.435,49.126l-21.891-25.097l7.798-5.954l-9.403,4.11  l-24.711-28.346l8.228-6.651l-10.327,4.25l-26.181-30.021c0,0-11.834,9.292-10.611,13.006c0.397,1.223,4.482,12.963,9.782,28.134  l-9.268,3.815c0,0-6.939,2.856,0,8.347c5.437,4.302,8.811,2.853,10.021,2.021l0.512-0.413l0.001-0.001l2.759-2.226  c2.965,8.501,6.098,17.462,9.044,25.908l-6.794,2.973c-1.059,0.551-5.465,3.261,0.217,7.756c6.398,5.062,8.984,3.822,9.333,3.556  l0.001,0.004l1.769-1.351c3.986,11.414,7.154,20.478,8.345,23.885c-33.699,18.78-44.592,26.581-50.22,31.153  c-10.667,8.667-12.958,23.766-12.958,23.766l0.026-0.016c-0.258,1.864,0.266,3.447,1.786,4.649  c14.634,11.578,82.474-25.878,94.068-32.622c0,0,15.182,4.187,35.753,9.859c0,0-5.014,2.194,0.144,6.814l1.968,1.557  c5.521,3.99,7.803,2.894,8.128,2.645l0.003,0.01l7.885-6.028c11.867,3.272,24.455,6.74,36.392,10.029l-2.312,0.952l0.003,0.001  c0,0-6.939,2.856,0,8.347c5.146,4.071,8.447,2.988,9.813,2.157l8.67-7c21.223,5.844,37.626,10.354,39.348,10.807  c5.219,1.383,20.567-5.13,20.567-5.13l-39.625-22.071l7.751-6.259l-10.918,4.493l-37.534-20.902l7.407-5.66l-9.842,4.307  L691.3,672.47l90.971-57.846L838.988,623.817z"
     id="path7" /><polygon
     fill="none"
     points="-447.585,217.25 -411.685,245.653 -452.635,269.298 -488.536,240.894 "
     id="polygon9" /><path
     opacity="0.75"
     fill="#000000"
     d="M-420.607,245.086l0.915-0.596l-7.574-4.295l-0.152-0.12l0.007-0.005v-5.765l-0.841,0.4  l-1.2,3.183l-3.363-3.781l-1.007,0.522l0.918,6.472c-7.038,3.549-11.911,5.586-16.244,7.867l-3.506-4.019l1.249-0.954l-1.506,0.659  l-3.958-4.54l1.318-1.065l-1.654,0.681l-4.192-4.808c0,0-1.895,1.488-1.699,2.083c0.063,0.195,0.718,2.076,1.566,4.505l-1.484,0.611  c0,0-1.111,0.458,0,1.337c0.871,0.688,1.411,0.457,1.605,0.323l0.082-0.066l0,0l0.442-0.355c0.475,1.361,0.977,2.796,1.449,4.148  l-1.088,0.477c-0.169,0.088-0.875,0.521,0.035,1.242c1.025,0.811,1.439,0.611,1.495,0.568l0,0.001l0.283-0.216  c0.638,1.828,1.146,3.279,1.336,3.824c-5.397,3.008-7.141,4.258-8.042,4.989c-1.708,1.388-2.075,3.807-2.075,3.807l0.004-0.003  c-0.042,0.299,0.042,0.553,0.286,0.745c2.344,1.854,13.208-4.145,15.065-5.225c0,0,2.431,0.67,5.726,1.579  c0,0-0.803,0.351,0.023,1.091l0.315,0.25c0.884,0.639,1.25,0.463,1.302,0.423l0.001,0.002l1.263-0.966  c1.9,0.524,3.916,1.079,5.828,1.606l-0.37,0.152h0c0,0-1.111,0.458,0,1.337c0.824,0.652,1.353,0.479,1.571,0.346l1.389-1.121  c3.399,0.936,6.025,1.658,6.301,1.73c0.836,0.222,3.294-0.821,3.294-0.821l-6.346-3.535l1.241-1.002l-1.749,0.72l-6.011-3.348  l1.186-0.906l-1.576,0.689l-5.507-3.067l14.568-9.265L-420.607,245.086z"
     id="path11" /><path
     fill="#000000"
     d="M992.555-161.5l-3.805-78h-105v-11h53.5v-27h-123v27h53.5v11h-105l-3.805,78h-9.695v45h7.5h238h7.5v-45  H992.555z M885.611-224.5c3.037,0,5.5,2.462,5.5,5.5s-2.463,5.5-5.5,5.5c-3.038,0-5.5-2.462-5.5-5.5S882.573-224.5,885.611-224.5z   M885.611-203.5c3.037,0,5.5,2.462,5.5,5.5s-2.463,5.5-5.5,5.5c-3.038,0-5.5-2.462-5.5-5.5S882.573-203.5,885.611-203.5z   M885.611-182.5c3.037,0,5.5,2.462,5.5,5.5s-2.463,5.5-5.5,5.5c-3.038,0-5.5-2.462-5.5-5.5S882.573-182.5,885.611-182.5z   M864.611-224.5c3.037,0,5.5,2.462,5.5,5.5s-2.463,5.5-5.5,5.5c-3.038,0-5.5-2.462-5.5-5.5S861.573-224.5,864.611-224.5z   M864.611-203.5c3.037,0,5.5,2.462,5.5,5.5s-2.463,5.5-5.5,5.5c-3.038,0-5.5-2.462-5.5-5.5S861.573-203.5,864.611-203.5z   M864.611-182.5c3.037,0,5.5,2.462,5.5,5.5s-2.463,5.5-5.5,5.5c-3.038,0-5.5-2.462-5.5-5.5S861.573-182.5,864.611-182.5z   M780.611-171.5c-3.038,0-5.5-2.462-5.5-5.5s2.462-5.5,5.5-5.5c3.037,0,5.5,2.462,5.5,5.5S783.648-171.5,780.611-171.5z   M780.611-192.5c-3.038,0-5.5-2.462-5.5-5.5s2.462-5.5,5.5-5.5c3.037,0,5.5,2.462,5.5,5.5S783.648-192.5,780.611-192.5z   M780.611-213.5c-3.038,0-5.5-2.462-5.5-5.5s2.462-5.5,5.5-5.5c3.037,0,5.5,2.462,5.5,5.5S783.648-213.5,780.611-213.5z   M801.611-171.5c-3.038,0-5.5-2.462-5.5-5.5s2.462-5.5,5.5-5.5c3.037,0,5.5,2.462,5.5,5.5S804.648-171.5,801.611-171.5z   M801.611-192.5c-3.038,0-5.5-2.462-5.5-5.5s2.462-5.5,5.5-5.5c3.037,0,5.5,2.462,5.5,5.5S804.648-192.5,801.611-192.5z   M801.611-213.5c-3.038,0-5.5-2.462-5.5-5.5s2.462-5.5,5.5-5.5c3.037,0,5.5,2.462,5.5,5.5S804.648-213.5,801.611-213.5z   M822.611-171.5c-3.038,0-5.5-2.462-5.5-5.5s2.462-5.5,5.5-5.5c3.037,0,5.5,2.462,5.5,5.5S825.648-171.5,822.611-171.5z   M822.611-192.5c-3.038,0-5.5-2.462-5.5-5.5s2.462-5.5,5.5-5.5c3.037,0,5.5,2.462,5.5,5.5S825.648-192.5,822.611-192.5z   M822.611-213.5c-3.038,0-5.5-2.462-5.5-5.5s2.462-5.5,5.5-5.5c3.037,0,5.5,2.462,5.5,5.5S825.648-213.5,822.611-213.5z   M843.611-171.5c-3.038,0-5.5-2.462-5.5-5.5s2.462-5.5,5.5-5.5c3.037,0,5.5,2.462,5.5,5.5S846.648-171.5,843.611-171.5z   M843.611-192.5c-3.038,0-5.5-2.462-5.5-5.5s2.462-5.5,5.5-5.5c3.037,0,5.5,2.462,5.5,5.5S846.648-192.5,843.611-192.5z   M843.611-213.5c-3.038,0-5.5-2.462-5.5-5.5s2.462-5.5,5.5-5.5c3.037,0,5.5,2.462,5.5,5.5S846.648-213.5,843.611-213.5z   M901.75-132.5h-52v-9h52V-132.5z M906.611-171.5c-3.038,0-5.5-2.462-5.5-5.5s2.462-5.5,5.5-5.5c3.037,0,5.5,2.462,5.5,5.5  S909.648-171.5,906.611-171.5z M906.611-192.5c-3.038,0-5.5-2.462-5.5-5.5s2.462-5.5,5.5-5.5c3.037,0,5.5,2.462,5.5,5.5  S909.648-192.5,906.611-192.5z M906.611-213.5c-3.038,0-5.5-2.462-5.5-5.5s2.462-5.5,5.5-5.5c3.037,0,5.5,2.462,5.5,5.5  S909.648-213.5,906.611-213.5z M927.611-171.5c-3.038,0-5.5-2.462-5.5-5.5s2.462-5.5,5.5-5.5c3.037,0,5.5,2.462,5.5,5.5  S930.648-171.5,927.611-171.5z M927.611-192.5c-3.038,0-5.5-2.462-5.5-5.5s2.462-5.5,5.5-5.5c3.037,0,5.5,2.462,5.5,5.5  S930.648-192.5,927.611-192.5z M927.611-213.5c-3.038,0-5.5-2.462-5.5-5.5s2.462-5.5,5.5-5.5c3.037,0,5.5,2.462,5.5,5.5  S930.648-213.5,927.611-213.5z M948.611-171.5c-3.038,0-5.5-2.462-5.5-5.5s2.462-5.5,5.5-5.5c3.037,0,5.5,2.462,5.5,5.5  S951.648-171.5,948.611-171.5z M948.611-192.5c-3.038,0-5.5-2.462-5.5-5.5s2.462-5.5,5.5-5.5c3.037,0,5.5,2.462,5.5,5.5  S951.648-192.5,948.611-192.5z M948.611-213.5c-3.038,0-5.5-2.462-5.5-5.5s2.462-5.5,5.5-5.5c3.037,0,5.5,2.462,5.5,5.5  S951.648-213.5,948.611-213.5z M969.611-171.5c-3.038,0-5.5-2.462-5.5-5.5s2.462-5.5,5.5-5.5c3.037,0,5.5,2.462,5.5,5.5  S972.648-171.5,969.611-171.5z M969.611-192.5c-3.038,0-5.5-2.462-5.5-5.5s2.462-5.5,5.5-5.5c3.037,0,5.5,2.462,5.5,5.5  S972.648-192.5,969.611-192.5z M969.611-213.5c-3.038,0-5.5-2.462-5.5-5.5s2.462-5.5,5.5-5.5c3.037,0,5.5,2.462,5.5,5.5  S972.648-213.5,969.611-213.5z"
     id="path13" /><path
     opacity="0.6"
     fill="#000000"
     d="M70.108-262.981l-2.788-57.167H-9.637v-8.062h39.211V-348h-90.149v19.789h39.212v8.062H-98.32  l-2.788,57.167h-7.106V-230h5.497H71.717h5.498v-32.981H70.108z M-8.272-309.155c2.226,0,4.03,1.805,4.03,4.031  c0,2.226-1.805,4.031-4.03,4.031c-2.227,0-4.031-1.805-4.031-4.031C-12.304-307.351-10.499-309.155-8.272-309.155z M-8.272-293.764  c2.226,0,4.03,1.805,4.03,4.031c0,2.226-1.805,4.031-4.03,4.031c-2.227,0-4.031-1.805-4.031-4.031  C-12.304-291.959-10.499-293.764-8.272-293.764z M-8.272-278.373c2.226,0,4.03,1.805,4.03,4.031c0,2.227-1.805,4.031-4.03,4.031  c-2.227,0-4.031-1.805-4.031-4.031C-12.304-276.568-10.499-278.373-8.272-278.373z M-23.664-309.155  c2.226,0,4.031,1.805,4.031,4.031c0,2.226-1.806,4.031-4.031,4.031c-2.227,0-4.031-1.805-4.031-4.031  C-27.695-307.351-25.891-309.155-23.664-309.155z M-23.664-293.764c2.226,0,4.031,1.805,4.031,4.031  c0,2.226-1.806,4.031-4.031,4.031c-2.227,0-4.031-1.805-4.031-4.031C-27.695-291.959-25.891-293.764-23.664-293.764z   M-23.664-278.373c2.226,0,4.031,1.805,4.031,4.031c0,2.227-1.806,4.031-4.031,4.031c-2.227,0-4.031-1.805-4.031-4.031  C-27.695-276.568-25.891-278.373-23.664-278.373z M-85.229-270.311c-2.227,0-4.031-1.805-4.031-4.031  c0-2.226,1.805-4.031,4.031-4.031s4.031,1.805,4.031,4.031C-81.198-272.115-83.003-270.311-85.229-270.311z M-85.229-285.702  c-2.227,0-4.031-1.805-4.031-4.031c0-2.227,1.805-4.031,4.031-4.031s4.031,1.805,4.031,4.031  C-81.198-287.507-83.003-285.702-85.229-285.702z M-85.229-301.093c-2.227,0-4.031-1.805-4.031-4.031  c0-2.227,1.805-4.031,4.031-4.031s4.031,1.805,4.031,4.031C-81.198-302.898-83.003-301.093-85.229-301.093z M-69.838-270.311  c-2.227,0-4.031-1.805-4.031-4.031c0-2.226,1.805-4.031,4.031-4.031c2.226,0,4.031,1.805,4.031,4.031  C-65.807-272.115-67.612-270.311-69.838-270.311z M-69.838-285.702c-2.227,0-4.031-1.805-4.031-4.031  c0-2.227,1.805-4.031,4.031-4.031c2.226,0,4.031,1.805,4.031,4.031C-65.807-287.507-67.612-285.702-69.838-285.702z   M-69.838-301.093c-2.227,0-4.031-1.805-4.031-4.031c0-2.227,1.805-4.031,4.031-4.031c2.226,0,4.031,1.805,4.031,4.031  C-65.807-302.898-67.612-301.093-69.838-301.093z M-54.446-270.311c-2.228,0-4.031-1.805-4.031-4.031  c0-2.226,1.804-4.031,4.031-4.031c2.226,0,4.03,1.805,4.03,4.031C-50.416-272.115-52.221-270.311-54.446-270.311z M-54.446-285.702  c-2.228,0-4.031-1.805-4.031-4.031c0-2.227,1.804-4.031,4.031-4.031c2.226,0,4.03,1.805,4.03,4.031  C-50.416-287.507-52.221-285.702-54.446-285.702z M-54.446-301.093c-2.228,0-4.031-1.805-4.031-4.031  c0-2.227,1.804-4.031,4.031-4.031c2.226,0,4.03,1.805,4.03,4.031C-50.416-302.898-52.221-301.093-54.446-301.093z M-39.056-270.311  c-2.227,0-4.031-1.805-4.031-4.031c0-2.226,1.805-4.031,4.031-4.031s4.031,1.805,4.031,4.031  C-35.024-272.115-36.829-270.311-39.056-270.311z M-39.056-285.702c-2.227,0-4.031-1.805-4.031-4.031  c0-2.227,1.805-4.031,4.031-4.031s4.031,1.805,4.031,4.031C-35.024-287.507-36.829-285.702-39.056-285.702z M-39.056-301.093  c-2.227,0-4.031-1.805-4.031-4.031c0-2.227,1.805-4.031,4.031-4.031s4.031,1.805,4.031,4.031  C-35.024-302.898-36.829-301.093-39.056-301.093z M3.556-241.727h-38.112v-6.596H3.556V-241.727z M7.119-270.311  c-2.227,0-4.031-1.805-4.031-4.031c0-2.226,1.805-4.031,4.031-4.031c2.226,0,4.031,1.805,4.031,4.031  C11.15-272.115,9.345-270.311,7.119-270.311z M7.119-285.702c-2.227,0-4.031-1.805-4.031-4.031c0-2.227,1.805-4.031,4.031-4.031  c2.226,0,4.031,1.805,4.031,4.031C11.15-287.507,9.345-285.702,7.119-285.702z M7.119-301.093c-2.227,0-4.031-1.805-4.031-4.031  c0-2.227,1.805-4.031,4.031-4.031c2.226,0,4.031,1.805,4.031,4.031C11.15-302.898,9.345-301.093,7.119-301.093z M22.51-270.311  c-2.227,0-4.031-1.805-4.031-4.031c0-2.226,1.805-4.031,4.031-4.031s4.031,1.805,4.031,4.031  C26.541-272.115,24.736-270.311,22.51-270.311z M22.51-285.702c-2.227,0-4.031-1.805-4.031-4.031c0-2.227,1.805-4.031,4.031-4.031  s4.031,1.805,4.031,4.031C26.541-287.507,24.736-285.702,22.51-285.702z M22.51-301.093c-2.227,0-4.031-1.805-4.031-4.031  c0-2.227,1.805-4.031,4.031-4.031s4.031,1.805,4.031,4.031C26.541-302.898,24.736-301.093,22.51-301.093z M37.901-270.311  c-2.227,0-4.031-1.805-4.031-4.031c0-2.226,1.805-4.031,4.031-4.031c2.226,0,4.031,1.805,4.031,4.031  C41.933-272.115,40.127-270.311,37.901-270.311z M37.901-285.702c-2.227,0-4.031-1.805-4.031-4.031c0-2.227,1.805-4.031,4.031-4.031  c2.226,0,4.031,1.805,4.031,4.031C41.933-287.507,40.127-285.702,37.901-285.702z M37.901-301.093c-2.227,0-4.031-1.805-4.031-4.031  c0-2.227,1.805-4.031,4.031-4.031c2.226,0,4.031,1.805,4.031,4.031C41.933-302.898,40.127-301.093,37.901-301.093z M53.293-270.311  c-2.227,0-4.031-1.805-4.031-4.031c0-2.226,1.805-4.031,4.031-4.031c2.226,0,4.031,1.805,4.031,4.031  C57.324-272.115,55.519-270.311,53.293-270.311z M53.293-285.702c-2.227,0-4.031-1.805-4.031-4.031c0-2.227,1.805-4.031,4.031-4.031  c2.226,0,4.031,1.805,4.031,4.031C57.324-287.507,55.519-285.702,53.293-285.702z M53.293-301.093c-2.227,0-4.031-1.805-4.031-4.031  c0-2.227,1.805-4.031,4.031-4.031c2.226,0,4.031,1.805,4.031,4.031C57.324-302.898,55.519-301.093,53.293-301.093z"
     id="path15" /><path
     fill="#000000"
     d="M-130.849,534.295l0.524-2.713l13.499,2.033c0,0-0.722-4.088-2.044-4.689  c-0.436-0.197-4.64-2.053-10.082-4.449l0.827-4.285h-5.449l0.475,2.459c-3.061-1.348-6.289-2.77-9.334-4.109l0.563-3.514h-5.448  l0.235,1.465c-5.276-2.32-9.172-4.035-9.172-4.035c0-3.484-0.601-23.439-6.61-23.439c-6.011,0-6.611,23.439-6.611,23.439  s-3.873,1.705-9.126,4.018l0.232-1.447h-5.45l0.562,3.496c-3.041,1.338-6.268,2.758-9.327,4.107l0.47-2.439h-5.448l0.824,4.268  c-5.461,2.406-9.684,4.27-10.12,4.467c-1.323,0.602-2.044,4.689-2.044,4.689l13.539-2.041l0.525,2.721l0.557-2.883l12.782-1.924  l0.405,2.527l0.426-2.654l11.674-1.758l1.803,30.172l-12.621,7.812l0.12,1.803l16.23-2.318l0.599,4.562l0.576-4.564l16.252,2.32  l0.12-1.803l-12.621-7.812l1.803-30.172l11.717,1.764l0.425,2.648l0.404-2.523l12.784,1.926L-130.849,534.295z"
     id="path17" /><circle
     fill="none"
     stroke="#000000"
     stroke-width="12"
     stroke-miterlimit="10"
     cx="976.375"
     cy="408.875"
     r="52"
     id="circle19" /><circle
     cx="976.375"
     cy="408.875"
     r="6.75"
     id="circle21" /><line
     fill="none"
     stroke="#000000"
     stroke-width="8"
     stroke-miterlimit="10"
     x1="946.549"
     y1="453.904"
     x2="940.262"
     y2="471.034"
     id="line23" /><line
     fill="none"
     stroke="#000000"
     stroke-width="8"
     stroke-miterlimit="10"
     x1="1006.201"
     y1="453.904"
     x2="1012.488"
     y2="471.034"
     id="line25" /><path
     d="M914.389,380.309c-8.317-8.07-8.517-21.355-0.447-29.672c8.07-8.316,21.355-8.518,29.672-0.448L914.389,380.309z"
     id="path27" /><path
     d="M1038.718,380.309c8.317-8.07,8.516-21.355,0.446-29.672s-21.354-8.518-29.671-0.448L1038.718,380.309z"
     id="path29" /><line
     fill="none"
     stroke="#000000"
     stroke-width="8"
     stroke-miterlimit="10"
     x1="976.375"
     y1="408.875"
     x2="976.375"
     y2="374.834"
     id="line31" /><line
     fill="none"
     stroke="#000000"
     stroke-width="8"
     stroke-miterlimit="10"
     x1="976.375"
     y1="408.875"
     x2="994.299"
     y2="431.167"
     id="line33" /><path
     fill="none"
     stroke="#000000"
     stroke-width="12"
     stroke-miterlimit="10"
     d="M901.748,81"
     id="path35" /><path
     d="M907.02,81c0-23.748,19.252-43,43-43s43,19.252,43,43c0,69,18.996,66,18.996,66v13h-42.911h-30.333h-50.748v-13  C888.023,147,907.02,150,907.02,81"
     id="path37" /><circle
     fill="none"
     stroke="#000000"
     stroke-width="9"
     stroke-miterlimit="10"
     cx="950.02"
     cy="160"
     r="10.542"
     id="circle39" /><g
     id="g41"><path
       d="M949.27,34c-1.186-1.181-2.081-2.361-3-3.542l-1.237-1.771c-0.366-0.59-0.697-1.181-1.013-1.771   c-0.312-0.59-0.922-1.181-1.425-1.771c-0.481-0.59-0.532-1.181-0.075-1.771c0.426-0.59,1.186-1.181,2.225-1.771   c0.285-0.148,0.506-0.295,0.844-0.443l1.009-0.443l1.255-0.442l0.633-0.222l0.785-0.221h1.5l0.785,0.221l0.633,0.222l1.255,0.442   l1.009,0.443c0.338,0.147,0.559,0.295,0.844,0.443c1.039,0.59,1.799,1.18,2.225,1.771c0.457,0.59,0.406,1.181-0.075,1.771   c-0.503,0.59-1.112,1.181-1.425,1.771c-0.315,0.59-0.646,1.18-1.013,1.771l-1.237,1.771c-0.919,1.18-1.814,2.361-3,3.542H949.27z"
       id="path43" /></g><circle
     fill="none"
     stroke="#000000"
     stroke-width="14"
     stroke-miterlimit="10"
     cx="480.389"
     cy="-223.217"
     r="65.783"
     id="circle45" /><line
     fill="none"
     stroke="#000000"
     stroke-width="14"
     stroke-miterlimit="10"
     x1="431"
     y1="-223.217"
     x2="520"
     y2="-223.217"
     id="line47" /><polyline
     fill="none"
     stroke="#000000"
     stroke-width="14"
     stroke-miterlimit="10"
     points="480.836,-183.553 520,-223.217   480.803,-262.914 "
     id="polyline49" /><circle
     fill="none"
     stroke="#000000"
     stroke-width="8.6939"
     stroke-miterlimit="10"
     cx="640.111"
     cy="-289"
     r="40.851"
     id="circle51" /><line
     fill="none"
     stroke="#000000"
     stroke-width="8.6939"
     stroke-miterlimit="10"
     x1="680.962"
     y1="-289"
     x2="615.513"
     y2="-289"
     id="line53" /><polyline
     fill="none"
     stroke="#000000"
     stroke-width="8.6939"
     stroke-linecap="round"
     stroke-miterlimit="10"
     points="  639.834,-313.631 615.513,-289 639.854,-264.348 "
     id="polyline55" /><g
     id="g57"
     style="fill:#ffffff"><path
       d="M49.909,85.053c-21.011,0-38.105-17.094-38.105-38.105S28.898,8.842,49.909,8.842s38.105,17.094,38.105,38.105   S70.92,85.053,49.909,85.053z M49.909,16.726c-16.664,0-30.221,13.558-30.221,30.222s13.557,30.221,30.221,30.221   S80.13,63.612,80.13,46.948S66.573,16.726,49.909,16.726z"
       id="path59"
       style="fill:#ffffff" /></g><circle
     cx="49.909"
     cy="46.948"
     r="4.435"
     id="circle61"
     style="fill:#5f8dd3" /><g
     id="g63"
     style="fill:#ffffff"><rect
       x="25.621"
       y="76.164"
       transform="matrix(0.9388 0.3445 -0.3445 0.9388 30.0343 -4.7025)"
       width="5.255"
       height="11.988"
       id="rect65"
       style="fill:#ffffff" /></g><g
     id="g67"
     style="fill:#ffffff"><rect
       x="65.576"
       y="79.531"
       transform="matrix(0.3445 0.9388 -0.9388 0.3445 124.0384 -13.3363)"
       width="11.988"
       height="5.255"
       id="rect69"
       style="fill:#ffffff" /></g><path
     d="M9.186,28.18C3.721,22.878,3.59,14.15,8.891,8.686c5.302-5.464,14.031-5.596,19.494-0.294L9.186,28.18z"
     id="path71"
     style="fill:#ffffff" /><path
     d="M90.867,28.18c5.465-5.302,5.595-14.03,0.293-19.494S77.131,3.09,71.667,8.392L90.867,28.18z"
     id="path73"
     style="fill:#ffffff" /><g
     id="g75"
     style="fill:#5f8dd3"
     transform="translate(0,-2.7171611)"><rect
       x="47.280998"
       y="24.583"
       width="5.256"
       height="22.365"
       id="rect77"
       style="fill:#5f8dd3" /></g><g
     id="g79"
     style="fill:#5f8dd3"
     transform="translate(1.6302967,2.7171611)"><rect
       x="46.401001"
       y="51.643002"
       transform="matrix(0.6266,0.7793,-0.7793,0.6266,63.1276,-23.2206)"
       width="18.792999"
       height="5.2550001"
       id="rect81"
       style="fill:#5f8dd3" /></g></svg>