<?xml version="1.0" encoding="UTF-8" standalone="no"?>
<svg
   xmlns:dc="http://purl.org/dc/elements/1.1/"
   xmlns:cc="http://creativecommons.org/ns#"
   xmlns:rdf="http://www.w3.org/1999/02/22-rdf-syntax-ns#"
   xmlns:svg="http://www.w3.org/2000/svg"
   xmlns="http://www.w3.org/2000/svg"
   xmlns:sodipodi="http://sodipodi.sourceforge.net/DTD/sodipodi-0.dtd"
   xmlns:inkscape="http://www.inkscape.org/namespaces/inkscape"
   version="1.1"
   id="Layer_1"
   x="0px"
   y="0px"
   width="80px"
   height="80px"
   viewBox="4.0 -8.0 80.0 108.0"
   enable-background="new 0 0 80 80"
   xml:space="preserve"
   inkscape:version="0.91 r13725"
   sodipodi:docname="annuler.svg"><metadata
     id="metadata39"><rdf:RDF><cc:Work
         rdf:about=""><dc:format>image/svg+xml</dc:format><dc:type
           rdf:resource="http://purl.org/dc/dcmitype/StillImage" /><dc:title /></cc:Work></rdf:RDF></metadata><defs
     id="defs37" /><sodipodi:namedview
     pagecolor="#ffffff"
     bordercolor="#666666"
     borderopacity="1"
     objecttolerance="10"
     gridtolerance="10"
     guidetolerance="10"
     inkscape:pageopacity="0"
     inkscape:pageshadow="2"
     inkscape:window-width="1366"
     inkscape:window-height="715"
     id="namedview35"
     showgrid="false"
     inkscape:zoom="2.95"
     inkscape:cx="22.203391"
     inkscape:cy="40"
     inkscape:window-x="-8"
     inkscape:window-y="-8"
     inkscape:window-maximized="1"
     inkscape:current-layer="Layer_1" /><g
     id="g3"
     style="fill:#ffffff"
     transform="matrix(1.4395809,0,0,1.353305,-16.954135,-16.099576)"><g
       id="g5"
       style="fill:#ffffff"><polygon
         points="14,64 52,64 52,60 18,60 18,35 64,35 64,48 68,48 68,15 14,15 "
         id="polygon7"
         style="fill:#ffffff" /></g></g><g
     id="g9"
     style="fill:#ffffff"
     transform="matrix(1.4395809,0,0,1.353305,-16.954135,-16.099576)"><circle
       cx="23"
       cy="25"
       r="5"
       id="circle11"
       style="fill:#ffffff" /></g><g
     id="g13"
     transform="matrix(1.4395809,0,0,1.353305,-16.954135,-16.099576)"><rect
       x="32"
       y="20"
       width="28"
       height="4"
       id="rect15"
       style="fill:#ffffff" /></g><g
     id="g17"
     style="fill:#ffffff"
     transform="matrix(1.4395809,0,0,1.353305,-16.954135,-16.099576)"><rect
       x="32"
       y="26"
       width="23"
       height="4"
       id="rect19"
       style="fill:#ffffff" /></g><g
     id="g21"
     style="fill:#5f8dd3"
     transform="matrix(1.4395809,0,0,1.353305,-16.954135,-16.099576)"><g
       id="g23"
       style="fill:#5f8dd3"><rect
         x="62.299999"
         y="47"
         transform="matrix(0.7071,0.7071,-0.7071,0.7071,61.7751,-27.6383)"
         width="4"
         height="27.6"
         id="rect25"
         style="fill:#5f8dd3" /></g><g
       id="g27"
       style="fill:#5f8dd3"><rect
         x="49.5"
         y="58.799999"
         transform="matrix(0.7071,0.7071,-0.7071,0.7071,61.4822,-26.9312)"
         width="27.6"
         height="4"
         id="rect29"
         style="fill:#5f8dd3" /></g></g></svg>