<?xml version="1.0" encoding="UTF-8" standalone="no"?>
<svg
   xmlns:dc="http://purl.org/dc/elements/1.1/"
   xmlns:cc="http://creativecommons.org/ns#"
   xmlns:rdf="http://www.w3.org/1999/02/22-rdf-syntax-ns#"
   xmlns:svg="http://www.w3.org/2000/svg"
   xmlns="http://www.w3.org/2000/svg"
   xmlns:sodipodi="http://sodipodi.sourceforge.net/DTD/sodipodi-0.dtd"
   xmlns:inkscape="http://www.inkscape.org/namespaces/inkscape"
   version="1.1"
   id="Capa_1"
   x="0px"
   y="0px"
   width="100px"
   height="100px"
   viewBox="5.0 -10.0 100.0 135.0"
   enable-background="new 0 0 100 100"
   xml:space="preserve"
   inkscape:version="0.91 r13725"
   sodipodi:docname="catalog1.svg"><metadata
     id="metadata13"><rdf:RDF><cc:Work
         rdf:about=""><dc:format>image/svg+xml</dc:format><dc:type
           rdf:resource="http://purl.org/dc/dcmitype/StillImage" /><dc:title></dc:title></cc:Work></rdf:RDF></metadata><defs
     id="defs11" /><sodipodi:namedview
     pagecolor="#ffffff"
     bordercolor="#666666"
     borderopacity="1"
     objecttolerance="10"
     gridtolerance="10"
     guidetolerance="10"
     inkscape:pageopacity="0"
     inkscape:pageshadow="2"
     inkscape:window-width="1366"
     inkscape:window-height="715"
     id="namedview9"
     showgrid="false"
     inkscape:zoom="2.36"
     inkscape:cx="35.169492"
     inkscape:cy="50"
     inkscape:window-x="-8"
     inkscape:window-y="-8"
     inkscape:window-maximized="1"
     inkscape:current-layer="Capa_1" /><path
     d="m 62.888161,24.878483 -24.017521,0 c -0.86792,0 -1.570314,0.73069 -1.570314,1.633573 l 0,24.983932 c 0,0.902884 0.702394,1.633574 1.570314,1.633574 l 24.016432,0 c 0.86792,0 1.570314,-0.73069 1.570314,-1.633574 l 0,-24.983932 c 0,-0.902883 -0.702394,-1.633573 -1.569225,-1.633573 z m -1.570313,24.983932 -20.876895,0 c 0,0 0,-9.399801 0,-14.099702 l 0,-7.618216 20.876895,0 z m 33.445936,-23.350359 0,24.983932 c 0,0.902884 -0.702394,1.633574 -1.570313,1.633574 l -24.016433,0 c -0.867919,0 -1.570313,-0.73069 -1.570313,-1.633574 l 0,-24.983932 c 0,-0.902883 0.702394,-1.633573 1.570313,-1.633573 l 24.016433,0 c 0.867919,0 1.570313,0.73069 1.570313,1.633573 z m -30.306398,32.288566 0,24.983932 c 0,0.902884 -0.702394,1.633574 -1.570314,1.633574 l -24.016432,0 c -0.86792,0 -1.570314,-0.73069 -1.570314,-1.633574 l 0,-24.983932 c 0,-0.902883 0.702394,-1.633573 1.570314,-1.633573 l 24.016432,0 c 0.86792,0 1.570314,0.73069 1.570314,1.633573 z m 30.306398,0 0,24.983932 c 0,0.902884 -0.702394,1.633574 -1.570313,1.633574 l -24.016433,0 c -0.867919,0 -1.570313,-0.73069 -1.570313,-1.633574 l 0,-24.983932 c 0,-0.902883 0.702394,-1.633573 1.570313,-1.633573 l 24.016433,0 c 0.867919,0 1.570313,0.73069 1.570313,1.633573 z m 8.244686,-44.286608 0,81.268582 c 0,1.804635 -1.40587,3.266015 -3.139533,3.266015 l -83.114454,0 c -1.73475,0 -3.139538,-1.462513 -3.139538,-3.266015 l 0,-7.377136 3.139538,0 0,7.377136 83.114454,0 0,-81.268582 -83.114454,0 0,7.377136 -3.140627,0 0,-7.377136 c 0,-1.804634 1.405877,-3.266014 3.139538,-3.266014 l 83.114454,0 c 1.734752,0 3.140622,1.462513 3.140622,3.266014 z m -89.394614,58.18671 0,-35.104837 3.139538,0 0,35.10597 -3.139538,0 z M 9.4082034,85.138313 C 6.9732373,85.138313 5,83.085584 5,80.552526 5,78.0206 6.9732373,75.966738 9.4082034,75.966738 l 14.6925596,0 c 2.433877,0 4.408203,2.052729 4.408203,4.585788 0,2.531925 -1.973237,4.585787 -4.408203,4.585787 z m 0,-50.809573 C 6.9732373,34.32874 5,32.276011 5,29.742952 5,27.211026 6.9732373,25.157165 9.4082034,25.157165 l 14.6925596,0 c 2.433877,0 4.408203,2.052729 4.408203,4.585787 0,2.531926 -1.973237,4.585788 -4.408203,4.585788 z"
     id="path3"
     style="fill:#f9f9f9"
     inkscape:connector-curvature="0"
     sodipodi:nodetypes="sssssssssccscccssssssssssssssssssssssssssssssssccccccccssssccccccssssssssssssss" /></svg>