<?xml version="1.0" encoding="UTF-8" standalone="no"?>
<svg
   xmlns:dc="http://purl.org/dc/elements/1.1/"
   xmlns:cc="http://creativecommons.org/ns#"
   xmlns:rdf="http://www.w3.org/1999/02/22-rdf-syntax-ns#"
   xmlns:svg="http://www.w3.org/2000/svg"
   xmlns="http://www.w3.org/2000/svg"
   xmlns:sodipodi="http://sodipodi.sourceforge.net/DTD/sodipodi-0.dtd"
   xmlns:inkscape="http://www.inkscape.org/namespaces/inkscape"
   version="1.1"
   id="Capa_1"
   x="0px"
   y="0px"
   width="100px"
   height="100px"
   viewBox="5.0 -10.0 100.0 135.0"
   enable-background="new 0 0 100 100"
   xml:space="preserve"
   inkscape:version="0.91 r13725"
   sodipodi:docname="catalog.svg"><metadata
     id="metadata13"><rdf:RDF><cc:Work
         rdf:about=""><dc:format>image/svg+xml</dc:format><dc:type
           rdf:resource="http://purl.org/dc/dcmitype/StillImage" /></cc:Work></rdf:RDF></metadata><defs
     id="defs11" /><sodipodi:namedview
     pagecolor="#ffffff"
     bordercolor="#666666"
     borderopacity="1"
     objecttolerance="10"
     gridtolerance="10"
     guidetolerance="10"
     inkscape:pageopacity="0"
     inkscape:pageshadow="2"
     inkscape:window-width="1366"
     inkscape:window-height="715"
     id="namedview9"
     showgrid="false"
     inkscape:zoom="2.36"
     inkscape:cx="42.584746"
     inkscape:cy="50"
     inkscape:window-x="-8"
     inkscape:window-y="-8"
     inkscape:window-maximized="1"
     inkscape:current-layer="Capa_1" /><path
     d="M58.158,23.28H36.103c-0.797,0-1.442,0.645-1.442,1.442v22.054c0,0.797,0.645,1.442,1.442,1.442h22.054  c0.797,0,1.442-0.645,1.442-1.442V24.722C59.599,23.925,58.954,23.28,58.158,23.28z M56.716,45.334H37.545V26.163h19.171V45.334z   M87.429,24.722v22.054c0,0.797-0.645,1.442-1.442,1.442H63.933c-0.797,0-1.442-0.645-1.442-1.442V24.722  c0-0.797,0.645-1.442,1.442-1.442h22.054C86.784,23.28,87.429,23.925,87.429,24.722z M59.599,53.224v22.054  c0,0.797-0.645,1.442-1.442,1.442H36.103c-0.797,0-1.442-0.645-1.442-1.442V53.224c0-0.797,0.645-1.442,1.442-1.442h22.054  C58.954,51.782,59.599,52.427,59.599,53.224z M87.429,53.224v22.054c0,0.797-0.645,1.442-1.442,1.442H63.933  c-0.797,0-1.442-0.645-1.442-1.442V53.224c0-0.797,0.645-1.442,1.442-1.442h22.054C86.784,51.782,87.429,52.427,87.429,53.224z   M95,14.131v71.738c0,1.593-1.291,2.883-2.883,2.883H15.794c-1.593,0-2.883-1.291-2.883-2.883v-6.512h2.883v6.512h76.323V14.131  H15.794v6.512H12.91v-6.512c0-1.593,1.291-2.883,2.883-2.883h76.323C93.709,11.248,95,12.539,95,14.131z M12.91,65.494V34.506h2.883  v30.989H12.91z M9.048,76.473C6.812,76.473,5,74.661,5,72.425c0-2.235,1.812-4.048,4.048-4.048h13.492  c2.235,0,4.048,1.812,4.048,4.048c0,2.235-1.812,4.048-4.048,4.048H9.048z M9.048,31.622C6.812,31.622,5,29.81,5,27.574  c0-2.235,1.812-4.048,4.048-4.048h13.492c2.235,0,4.048,1.812,4.048,4.048c0,2.235-1.812,4.048-4.048,4.048H9.048z"
     id="path3"
     style="fill:#5f8dd3" /></svg>