<?xml version="1.0" encoding="UTF-8" standalone="no"?>
<svg
   xmlns:dc="http://purl.org/dc/elements/1.1/"
   xmlns:cc="http://creativecommons.org/ns#"
   xmlns:rdf="http://www.w3.org/1999/02/22-rdf-syntax-ns#"
   xmlns:svg="http://www.w3.org/2000/svg"
   xmlns="http://www.w3.org/2000/svg"
   xmlns:sodipodi="http://sodipodi.sourceforge.net/DTD/sodipodi-0.dtd"
   xmlns:inkscape="http://www.inkscape.org/namespaces/inkscape"
   version="1.1"
   id="Calque_1"
   x="0px"
   y="0px"
   width="100px"
   height="100px"
   viewBox="5.0 -10.0 100.0 135.0"
   enable-background="new 0 0 100 100"
   xml:space="preserve"
   inkscape:version="0.91 r13725"
   sodipodi:docname="catalogue definitif abo.svg"><metadata
     id="metadata81"><rdf:RDF><cc:Work
         rdf:about=""><dc:format>image/svg+xml</dc:format><dc:type
           rdf:resource="http://purl.org/dc/dcmitype/StillImage" /><dc:title></dc:title></cc:Work></rdf:RDF></metadata><defs
     id="defs79" /><sodipodi:namedview
     pagecolor="#ffffff"
     bordercolor="#666666"
     borderopacity="1"
     objecttolerance="10"
     gridtolerance="10"
     guidetolerance="10"
     inkscape:pageopacity="0"
     inkscape:pageshadow="2"
     inkscape:window-width="1366"
     inkscape:window-height="715"
     id="namedview77"
     showgrid="false"
     inkscape:zoom="2.36"
     inkscape:cx="42.584746"
     inkscape:cy="50"
     inkscape:window-x="-8"
     inkscape:window-y="-8"
     inkscape:window-maximized="1"
     inkscape:current-layer="Calque_1" /><g
     id="g3"
     transform="matrix(1.4131356,0,0,1.3438752,-14.650424,-12.045343)"><path
       d="M 94.672,11.93 C 94.465,11.766 94.198,11.706 93.948,11.757 L 50.004,21.719 6.052,11.758 C 5.802,11.706 5.535,11.767 5.328,11.931 5.121,12.095 5,12.336 5,12.603 l 0,64.799 c 0,0.405 0.285,0.75 0.673,0.845 l 44.133,9.996 c 0.061,0.009 0.129,0.017 0.19,0.017 0.069,0 0.129,0 0.198,-0.017 L 94.327,78.247 C 94.716,78.152 95,77.807 95,77.402 L 95,12.603 C 95,12.336 94.88,12.094 94.672,11.93 Z M 49.133,86.32 6.725,76.712 l 0,-63.03 42.408,9.608 0,63.03 z m 44.142,-9.608 -42.417,9.608 0,-63.03 42.417,-9.608 0,63.03 z"
       id="path5"
       inkscape:connector-curvature="0"
       style="stroke-width:0.09796307;stroke-miterlimit:4;stroke-dasharray:none;fill:#5f8dd3" /></g><g
     id="g7"
     transform="matrix(1.4131356,0,0,1.3438752,-14.650424,-13.189411)"><g
       id="g9"><path
         d="m 39.776,38.408 c -0.063,0 -0.127,-0.007 -0.191,-0.021 L 15.898,33.02 c -0.465,-0.105 -0.756,-0.567 -0.651,-1.032 0.105,-0.464 0.567,-0.756 1.032,-0.65 l 23.687,5.367 c 0.465,0.105 0.756,0.567 0.651,1.032 -0.091,0.399 -0.447,0.671 -0.841,0.671 z"
         id="path11"
         inkscape:connector-curvature="0"
         style="fill:#ff6600" /></g><g
       id="g13"><path
         d="m 31.093,40.077 c -0.063,0 -0.127,-0.007 -0.191,-0.021 l -6.32,-1.432 c -0.465,-0.105 -0.756,-0.567 -0.651,-1.032 0.105,-0.464 0.567,-0.755 1.032,-0.65 l 6.32,1.432 c 0.465,0.105 0.756,0.567 0.651,1.032 -0.091,0.4 -0.447,0.671 -0.841,0.671 z"
         id="path15"
         inkscape:connector-curvature="0"
         style="fill:#ff6600" /></g><g
       id="g17"><g
         id="g19"><path
           d="m 25.114,74.494 c -0.064,0 -0.127,-0.007 -0.191,-0.021 L 12.395,71.635 c -0.393,-0.089 -0.672,-0.438 -0.672,-0.841 l 0,-12.529 c 0,-0.262 0.119,-0.51 0.324,-0.674 0.205,-0.164 0.473,-0.225 0.729,-0.167 l 12.528,2.838 c 0.393,0.089 0.672,0.438 0.672,0.841 l 0,12.528 c 0,0.262 -0.119,0.51 -0.324,0.674 -0.154,0.123 -0.344,0.189 -0.538,0.189 z m -11.665,-4.39 10.803,2.448 0,-10.759 -10.803,-2.448 0,10.759 z"
           id="path21"
           inkscape:connector-curvature="0"
           style="fill:#ffff00" /></g><g
         id="g23"><path
           d="m 43.278,78.609 c -0.064,0 -0.127,-0.007 -0.191,-0.021 L 30.56,75.749 C 30.167,75.66 29.888,75.311 29.888,74.908 l 0,-12.527 c 0,-0.262 0.119,-0.51 0.324,-0.674 0.205,-0.164 0.473,-0.225 0.729,-0.167 l 12.528,2.838 c 0.393,0.089 0.672,0.438 0.672,0.841 l 0,12.528 c 0,0.262 -0.119,0.51 -0.324,0.674 -0.155,0.123 -0.345,0.188 -0.539,0.188 z m -11.665,-4.39 10.803,2.448 0,-10.759 -10.803,-2.448 0,10.759 z"
           id="path25"
           inkscape:connector-curvature="0"
           style="fill:#008000" /></g></g><g
       id="g27"><g
         id="g29"><path
           d="m 25.114,57.222 c -0.064,0 -0.127,-0.007 -0.191,-0.021 L 12.395,54.363 c -0.393,-0.089 -0.672,-0.438 -0.672,-0.841 l 0,-12.528 c 0,-0.262 0.119,-0.51 0.324,-0.674 0.205,-0.164 0.473,-0.224 0.729,-0.167 l 12.528,2.838 c 0.393,0.089 0.672,0.438 0.672,0.841 l 0,12.528 c 0,0.262 -0.119,0.51 -0.324,0.674 -0.154,0.123 -0.344,0.188 -0.538,0.188 z m -11.665,-4.389 10.803,2.448 0,-10.76 -10.803,-2.447 0,10.759 z"
           id="path31"
           inkscape:connector-curvature="0"
           style="fill:#000080" /></g><g
         id="g33"><path
           d="m 43.278,61.338 c -0.064,0 -0.127,-0.007 -0.191,-0.021 L 30.56,58.478 C 30.167,58.389 29.888,58.04 29.888,57.637 l 0,-12.528 c 0,-0.262 0.119,-0.51 0.324,-0.674 0.205,-0.164 0.473,-0.224 0.729,-0.167 l 12.528,2.838 c 0.393,0.089 0.672,0.438 0.672,0.841 l 0,12.528 c 0,0.262 -0.119,0.51 -0.324,0.674 -0.155,0.124 -0.345,0.189 -0.539,0.189 z m -11.665,-4.39 10.803,2.448 0,-10.76 -10.803,-2.447 0,10.759 z"
           id="path35"
           inkscape:connector-curvature="0"
           style="fill:#00ffff" /></g></g><g
       id="g37"><path
         d="m 28.549,31.534 c -0.265,0 -0.537,-0.031 -0.807,-0.093 -1.935,-0.438 -3.451,-2.305 -3.451,-4.25 0,-1.787 1.272,-3.084 3.025,-3.084 0.265,0 0.537,0.031 0.807,0.093 1.935,0.438 3.451,2.305 3.451,4.25 0,1.788 -1.272,3.084 -3.025,3.084 z m -1.234,-5.701 c -0.79,0 -1.3,0.533 -1.3,1.359 0,1.133 0.965,2.309 2.108,2.568 0.987,0.223 1.726,-0.34 1.726,-1.309 0,-1.133 -0.965,-2.309 -2.107,-2.568 -0.146,-0.033 -0.29,-0.05 -0.427,-0.05 z"
         id="path39"
         inkscape:connector-curvature="0"
         style="fill:#ff6600" /></g></g><g
     id="g41"
     transform="matrix(1.4131356,0,0,1.3438752,-14.07839,-11.473309)"><g
       id="g43"><g
         id="g45"><path
           d="m 74.886,74.494 c -0.194,0 -0.384,-0.065 -0.538,-0.189 -0.205,-0.163 -0.324,-0.411 -0.324,-0.674 l 0,-12.527 c 0,-0.403 0.279,-0.752 0.672,-0.841 l 12.528,-2.838 c 0.255,-0.058 0.524,0.003 0.729,0.167 0.205,0.163 0.324,0.411 0.324,0.674 l 0,12.528 c 0,0.403 -0.279,0.752 -0.672,0.841 l -12.528,2.838 c -0.064,0.013 -0.128,0.021 -0.191,0.021 z m 0.862,-12.701 0,10.759 10.803,-2.448 0,-10.759 -10.803,2.448 z"
           id="path47"
           inkscape:connector-curvature="0"
           style="fill:#ff0000" /></g><g
         id="g49"><path
           d="m 56.722,78.609 c -0.194,0 -0.384,-0.065 -0.538,-0.189 -0.205,-0.163 -0.324,-0.411 -0.324,-0.674 l 0,-12.527 c 0,-0.403 0.279,-0.752 0.672,-0.841 L 69.06,61.54 c 0.255,-0.058 0.524,0.003 0.729,0.167 0.205,0.163 0.324,0.411 0.324,0.674 l 0,12.528 c 0,0.403 -0.279,0.752 -0.672,0.841 l -12.528,2.838 c -0.064,0.014 -0.128,0.021 -0.191,0.021 z m 0.862,-12.701 0,10.759 10.803,-2.448 0,-10.759 -10.803,2.448 z"
           id="path51"
           inkscape:connector-curvature="0"
           style="fill:#00ffff" /></g></g><g
       id="g53"><g
         id="g55"><path
           d="m 74.886,40.083 c -0.194,0 -0.384,-0.065 -0.538,-0.189 -0.205,-0.163 -0.324,-0.411 -0.324,-0.674 l 0,-12.528 c 0,-0.403 0.279,-0.752 0.672,-0.841 l 12.528,-2.838 c 0.255,-0.059 0.524,0.003 0.729,0.167 0.205,0.163 0.324,0.411 0.324,0.674 l 0,12.528 c 0,0.403 -0.279,0.752 -0.672,0.841 l -12.528,2.838 c -0.064,0.015 -0.128,0.022 -0.191,0.022 z m 0.862,-12.702 0,10.759 10.803,-2.448 0,-10.758 -10.803,2.447 z"
           id="path57"
           inkscape:connector-curvature="0"
           style="fill:#008080" /></g><g
         id="g59"><path
           d="m 56.722,44.198 c -0.194,0 -0.384,-0.065 -0.538,-0.189 -0.205,-0.163 -0.324,-0.411 -0.324,-0.674 l 0,-12.527 c 0,-0.403 0.279,-0.752 0.672,-0.841 L 69.06,27.129 c 0.255,-0.059 0.524,0.003 0.729,0.167 0.205,0.163 0.324,0.411 0.324,0.674 l 0,12.528 c 0,0.403 -0.279,0.752 -0.672,0.841 l -12.528,2.838 c -0.064,0.013 -0.128,0.021 -0.191,0.021 z m 0.862,-12.701 0,10.759 10.803,-2.447 0,-10.76 -10.803,2.448 z"
           id="path61"
           inkscape:connector-curvature="0"
           style="fill:#ff0000" /></g></g><g
       id="g63"><g
         id="g65"><path
           d="m 74.886,57.222 c -0.194,0 -0.384,-0.065 -0.538,-0.189 -0.205,-0.163 -0.324,-0.411 -0.324,-0.674 l 0,-12.527 c 0,-0.403 0.279,-0.752 0.672,-0.841 l 12.528,-2.838 c 0.255,-0.057 0.524,0.003 0.729,0.167 0.205,0.163 0.324,0.411 0.324,0.674 l 0,12.528 c 0,0.403 -0.279,0.752 -0.672,0.841 l -12.528,2.838 c -0.064,0.014 -0.128,0.021 -0.191,0.021 z m 0.862,-12.701 0,10.759 10.803,-2.448 0,-10.758 -10.803,2.447 z"
           id="path67"
           inkscape:connector-curvature="0"
           style="fill:#008000" /></g><g
         id="g69"><path
           d="m 56.722,61.338 c -0.194,0 -0.384,-0.065 -0.538,-0.189 -0.205,-0.163 -0.324,-0.411 -0.324,-0.674 l 0,-12.528 c 0,-0.403 0.279,-0.752 0.672,-0.841 L 69.06,44.268 c 0.255,-0.058 0.524,0.003 0.729,0.167 0.205,0.163 0.324,0.411 0.324,0.674 l 0,12.528 c 0,0.403 -0.279,0.752 -0.672,0.841 l -12.528,2.838 c -0.064,0.015 -0.128,0.022 -0.191,0.022 z m 0.862,-12.702 0,10.759 10.803,-2.448 0,-10.758 -10.803,2.447 z"
           id="path71"
           inkscape:connector-curvature="0"
           style="fill:#ffff00" /></g></g></g></svg>