<?xml version="1.0" encoding="UTF-8" standalone="no"?>
<svg
   xmlns:dc="http://purl.org/dc/elements/1.1/"
   xmlns:cc="http://creativecommons.org/ns#"
   xmlns:rdf="http://www.w3.org/1999/02/22-rdf-syntax-ns#"
   xmlns:svg="http://www.w3.org/2000/svg"
   xmlns="http://www.w3.org/2000/svg"
   xmlns:sodipodi="http://sodipodi.sourceforge.net/DTD/sodipodi-0.dtd"
   xmlns:inkscape="http://www.inkscape.org/namespaces/inkscape"
   version="1.1"
   id="Layer_1"
   x="0px"
   y="0px"
   width="100.0px"
   height="100px"
   viewBox="0 0 140 140"
   enable-background="new 0 0 140 140"
   xml:space="preserve"
   inkscape:version="0.91 r13725"
   sodipodi:docname="signup.svg"><metadata
     id="metadata21"><rdf:RDF><cc:Work
         rdf:about=""><dc:format>image/svg+xml</dc:format><dc:type
           rdf:resource="http://purl.org/dc/dcmitype/StillImage" /></cc:Work></rdf:RDF></metadata><defs
     id="defs19" /><sodipodi:namedview
     pagecolor="#ffffff"
     bordercolor="#666666"
     borderopacity="1"
     objecttolerance="10"
     gridtolerance="10"
     guidetolerance="10"
     inkscape:pageopacity="0"
     inkscape:pageshadow="2"
     inkscape:window-width="1366"
     inkscape:window-height="715"
     id="namedview17"
     showgrid="false"
     inkscape:zoom="2.36"
     inkscape:cx="42.584746"
     inkscape:cy="50"
     inkscape:window-x="-8"
     inkscape:window-y="-8"
     inkscape:window-maximized="1"
     inkscape:current-layer="Layer_1" /><path
     fill="#000000"
     d="M133.363,10.104l-8.96-5.921c-2.303-1.523-5.659-0.506-7.494,2.271L78.248,64.951  c-0.931,1.41-1.286,3.001-1.113,4.427l-1.285,9.286l-1.523,11.031l9.55-5.727l8.038-4.821c1.38-0.399,2.705-1.35,3.637-2.761  l38.661-58.498C136.047,15.112,135.667,11.626,133.363,10.104z M88.449,65.845c-1.581,2.392-3.392,3.978-4.047,3.544l-2.546-1.682  c-0.655-0.434,0.094-2.721,1.674-5.114l33.28-50.357c1.581-2.392,3.393-3.978,4.048-3.545l2.547,1.684  c0.655,0.433-0.095,2.721-1.675,5.112L88.449,65.845z M95.786,70.695c-1.581,2.391-3.393,3.978-4.046,3.544l-2.548-1.684  c-0.656-0.432,0.094-2.721,1.675-5.113l33.281-50.357c1.58-2.391,3.392-3.978,4.047-3.545l2.546,1.684  c0.655,0.432-0.095,2.721-1.674,5.112L95.786,70.695z"
     id="path3"
     style="fill:#5f8dd3" /><g
     id="g5"
     style="fill:#f2f2f2"><path
       fill="#000000"
       d="M119.08,52.545v62.421c0,2.273-1.841,4.114-4.114,4.114H25.034c-2.271,0-4.114-1.841-4.114-4.114V25.034   c0-2.271,1.843-4.114,4.114-4.114h75.504l6.983-10.566H15.354c-2.761,0-5,2.239-5,5v109.293c0,2.762,2.239,5,5,5h109.292   c2.762,0,5-2.238,5-5V36.559L119.08,52.545z"
       id="path7"
       style="fill:#f2f2f2" /></g><path
     fill="#000000"
     d="M90.257,36.498c0,2.761-2.238,5-5,5h-52.54c-2.761,0-5-2.239-5-5v-2.862c0-2.761,2.239-5,5-5h52.54  c2.762,0,5,2.239,5,5V36.498z"
     id="path9"
     style="fill:#f9f9f9" /><path
     fill="#000000"
     d="M77.234,56.533c0,2.761-1.772,5-3.959,5H31.676c-2.187,0-3.959-2.239-3.959-5v-2.862  c0-2.761,1.772-5,3.959-5h41.599c2.187,0,3.959,2.239,3.959,5V56.533z"
     id="path11"
     style="fill:#f9f9f9" /><path
     fill="#000000"
     d="M70,76.111c0,2.762-1.513,5-3.38,5H31.098c-1.867,0-3.38-2.238-3.38-5V73.25c0-2.761,1.514-5,3.38-5h35.521  c1.867,0,3.38,2.239,3.38,5V76.111z"
     id="path13"
     style="fill:#f2f2f2" /><path
     fill="#000000"
     d="M70,96.144c0,2.762-1.514,5-3.381,5H31.098c-1.867,0-3.38-2.238-3.38-5v-2.861c0-2.761,1.514-5,3.38-5  h35.521c1.867,0,3.381,2.239,3.381,5V96.144z"
     id="path15"
     style="fill:#f9f9f9" /></svg>